<?xml version="1.0" encoding="UTF-8" standalone="no"?><!-- Generator: Gravit.io --><svg xmlns="http://www.w3.org/2000/svg" xmlns:xlink="http://www.w3.org/1999/xlink" style="isolation:isolate" viewBox="0 0 512 512" width="512pt" height="512pt"><defs><clipPath id="_clipPath_w5fGjjCw4SiUNd3yX8JsU4PAagrZHePW"><rect width="512" height="512"/></clipPath></defs><g clip-path="url(#_clipPath_w5fGjjCw4SiUNd3yX8JsU4PAagrZHePW)"><path d=" M 107.293 356.602 C 136.402 338.629 150.473 310.078 150.473 310.078 C 150.473 310.078 108.016 320.961 82.73 306.422 C 57.441 291.879 40.488 277.441 27.211 290.086 C 15.477 301.262 16.512 345.941 107.293 356.602 Z " fill="rgb(240,68,36)"/><path d=" M 406.391 356.602 C 377.277 338.629 363.207 310.078 363.207 310.078 C 363.207 310.078 405.664 320.961 430.949 306.422 C 456.238 291.879 473.191 277.441 486.469 290.086 C 498.203 301.262 497.168 345.941 406.391 356.602 Z " fill="rgb(240,68,36)"/><path d=" M 256.84 512 C 301.773 512 288.184 383.879 288.184 383.879 C 341.816 486.727 394.313 515.598 413.121 502.504 C 425.199 494.094 420.062 476.004 408.07 460.227 C 396.082 444.453 340.73 369.723 340.73 369.723 C 439.813 454.465 484.617 421.723 486.395 406.605 C 488.176 391.484 457.484 378.781 421.25 364.16 C 382.035 348.34 363.211 310.082 363.211 310.082 C 500.156 150.527 377.836 0 256.84 0 C 135.848 0 13.523 150.527 150.473 310.078 C 150.473 310.078 131.645 348.34 92.43 364.16 C 56.195 378.777 25.508 391.484 27.285 406.602 C 29.063 421.723 73.871 454.465 172.949 369.723 C 172.949 369.723 117.598 444.449 105.609 460.227 C 93.621 476 88.484 494.094 100.563 502.504 C 119.367 515.598 171.863 486.727 225.496 383.875 C 225.496 383.879 211.906 512 256.84 512 Z " fill="rgb(255,105,48)"/><path d=" M 107.293 356.602 C 136.402 338.629 150.473 310.078 150.473 310.078 C 150.473 310.078 128.836 315.625 107.254 313.508 C 99.105 324.398 85.891 338.637 67.402 348.215 C 78.219 351.812 91.367 354.73 107.293 356.602 L 107.293 356.602 Z " fill="rgb(216,61,36)"/><path d=" M 406.391 356.602 C 377.277 338.629 363.207 310.078 363.207 310.078 C 363.207 310.078 384.848 315.625 406.426 313.508 C 414.574 324.398 427.789 338.637 446.277 348.215 C 435.465 351.812 422.313 354.73 406.391 356.602 L 406.391 356.602 Z " fill="rgb(216,61,36)"/><g><path d=" M 29.625 412.305 C 40.078 427.695 85.25 444.734 172.949 369.723 C 164.285 361.164 150.813 359.832 140.645 366.535 C 96.375 395.742 53.09 407.648 29.625 412.305 L 29.625 412.305 Z " fill="rgb(255,84,38)"/><path d=" M 225.496 383.879 C 212.406 378.004 197.004 382.594 189.238 394.66 C 172.359 420.891 139.473 465.672 95.207 496.172 C 96.324 498.621 98.07 500.77 100.559 502.504 C 119.367 515.598 171.863 486.727 225.496 383.879 Z " fill="rgb(255,84,38)"/><path d=" M 484.055 412.305 C 473.602 427.695 428.43 444.734 340.73 369.723 C 349.395 361.164 362.871 359.832 373.035 366.535 C 417.305 395.742 460.59 407.648 484.055 412.305 L 484.055 412.305 Z " fill="rgb(255,84,38)"/><path d=" M 288.184 383.879 C 301.273 378.004 316.676 382.594 324.441 394.66 C 341.32 420.891 374.207 465.672 418.473 496.172 C 417.355 498.621 415.609 500.77 413.121 502.504 C 394.313 515.598 341.816 486.727 288.184 383.879 Z " fill="rgb(255,84,38)"/><path d=" M 256.84 474.504 C 232.141 474.504 225.125 445.168 223.816 410.305 C 222.551 447.812 225.031 512 256.84 512 C 288.648 512 291.129 447.812 289.863 410.305 C 288.555 445.168 281.539 474.504 256.84 474.504 L 256.84 474.504 Z " fill="rgb(255,84,38)"/></g><path d=" M 300.613 257.926 C 300.613 227.457 281.016 202.758 256.84 202.758 C 232.664 202.758 213.066 227.457 213.066 257.926 C 213.066 288.395 232.664 313.094 256.84 313.094 C 281.016 313.094 300.613 288.395 300.613 257.926 L 300.613 257.926 Z " fill="rgb(255,174,139)"/><path d=" M 256.84 284.969 C 236.523 284.969 219.441 267.52 214.508 243.863 C 213.57 248.355 213.066 253.066 213.066 257.926 C 213.066 288.395 232.664 313.094 256.84 313.094 C 281.016 313.094 300.613 288.395 300.613 257.926 C 300.613 253.066 300.109 248.355 299.172 243.863 C 294.238 267.52 277.156 284.969 256.84 284.969 L 256.84 284.969 Z " fill="rgb(255,149,104)"/><path d=" M 174.691 171.184 C 165.801 171.184 158.836 179.836 158.836 190.875 C 158.836 201.918 165.801 210.57 174.691 210.57 C 183.582 210.57 190.547 201.918 190.547 190.875 C 190.547 179.836 183.582 171.184 174.691 171.184 Z " fill="rgb(67,63,67)"/><path d=" M 338.988 171.184 C 330.098 171.184 323.133 179.836 323.133 190.875 C 323.133 201.918 330.098 210.57 338.988 210.57 C 347.879 210.57 354.844 201.918 354.844 190.875 C 354.844 179.836 347.879 171.184 338.988 171.184 L 338.988 171.184 Z " fill="rgb(67,63,67)"/><path d=" M 256.84 230.402 C 246.961 230.402 240.063 241.719 240.063 257.926 C 240.063 274.129 246.965 285.445 256.84 285.445 C 266.719 285.445 273.617 274.129 273.617 257.926 C 273.617 241.723 266.719 230.402 256.84 230.402 L 256.84 230.402 Z " fill="rgb(240,68,36)"/></g></svg>