<?xml version="1.0" encoding="UTF-8" standalone="no"?><!DOCTYPE svg PUBLIC "-//W3C//DTD SVG 1.1//EN" "http://www.w3.org/Graphics/SVG/1.1/DTD/svg11.dtd"><svg width="100%" height="100%" viewBox="0 0 1879 2048" version="1.1" xmlns="http://www.w3.org/2000/svg" xmlns:xlink="http://www.w3.org/1999/xlink" xml:space="preserve" xmlns:serif="http://www.serif.com/" style="fill-rule:evenodd;clip-rule:evenodd;stroke-linejoin:round;stroke-miterlimit:2;"><path d="M513.902,1240.3c-547.77,-638.172 -58.497,-1240.25 425.448,-1240.25c483.958,0 973.213,602.073 425.472,1240.26l28.09,5.888c17.536,3.178 41.985,6.81 69.589,8.609c54.946,3.606 122.685,-0.05 173.252,-29.126c101.152,-58.169 168.961,-115.917 222.068,-65.341c38.711,36.868 42.677,164.897 -160.948,232.459c-43.018,14.434 -95.464,26.061 -159.349,33.591l-0.363,-0.147c18.417,11.391 38.345,21.725 59.797,30.379c144.931,58.482 267.69,109.292 260.566,169.773c-7.109,60.466 -186.319,191.429 -582.628,-147.524c0,0 221.395,298.908 269.346,361.998c47.967,63.107 68.513,135.462 20.202,169.101c-75.23,52.373 -285.204,-63.106 -499.725,-474.476c0,0 54.357,512.459 -125.369,512.459c-179.726,0 -125.369,-512.459 -125.369,-512.475c-214.521,411.386 -424.495,526.865 -499.71,474.492c-48.31,-33.639 -27.764,-106.01 20.187,-169.101c47.95,-63.106 269.346,-361.998 269.346,-361.998c-396.293,338.953 -575.519,207.99 -582.628,147.509c-7.109,-60.466 115.635,-111.292 260.565,-169.758c21.441,-8.649 41.358,-18.976 59.768,-30.36l-0.33,0.126c-63.624,-7.499 -116.225,-19.167 -159.347,-33.59c-203.63,-67.561 -199.664,-195.59 -160.953,-232.458c53.107,-50.576 120.916,7.172 222.067,65.341c50.568,29.076 118.306,32.732 173.253,29.126c53.404,-3.499 94.855,-13.784 97.703,-14.502l0,-0.005Zm530.274,-242.563c3.474,0 6.791,-1.443 9.16,-3.983c2.369,-2.541 3.576,-5.951 3.334,-9.416c-3.398,-48.542 -21.257,-207.946 -23.744,-243.481c-0.292,-4.197 1.542,-8.26 4.883,-10.816c37.459,-29.26 61.534,-74.852 61.534,-126.022c0,-88.303 -71.69,-159.993 -159.992,-159.993c-88.303,0 -159.993,71.69 -159.993,159.993c0,51.171 24.076,96.763 61.508,126.058c3.328,2.548 5.154,6.596 4.861,10.777c-2.438,35.539 -20.297,194.942 -23.695,243.484c-0.242,3.465 0.965,6.875 3.334,9.416c2.369,2.54 5.686,3.983 9.16,3.983l209.65,0Z" style="fill:#ebeef4;"/></svg>